<svg width="36" height="37" viewBox="0 0 36 37" fill="none" xmlns="http://www.w3.org/2000/svg">
<circle cx="18" cy="18.1123" r="18" fill="#2700D9"/>
<path d="M13.08 14.3743H14.682C14.844 13.1143 15.762 12.2503 17.292 12.2503C18.858 12.2503 19.686 13.1143 19.686 14.3563C19.686 15.8683 18.516 16.5343 16.338 16.5523H15.906V17.9203H16.32C18.66 17.9203 19.938 18.6223 19.938 20.4583C19.938 21.7903 19.11 22.8163 17.364 22.8163C15.636 22.8163 14.628 21.7543 14.466 20.3683H12.882C13.08 22.8883 14.916 24.2023 17.382 24.2023C20.1 24.2023 21.504 22.6183 21.504 20.6023C21.504 18.7303 20.478 17.6143 18.966 17.2543V17.1643C20.334 16.8583 21.27 15.6883 21.27 14.1943C21.27 12.3223 19.884 10.8463 17.346 10.8463C14.934 10.8463 13.242 12.1423 13.08 14.3743Z" fill="white"/>
</svg>
