<svg width="138" height="36" viewBox="0 0 138 36" fill="none" xmlns="http://www.w3.org/2000/svg">
<circle cx="30" cy="19" r="12" fill="#2700D9"/>
<path d="M1.65601 26H5.01601V18.92H10.368V16.256H5.01601V11.96H12V9.24799H1.65601V26Z" fill="white"/>
<path d="M17.7426 19.376C17.7426 16.808 18.9426 16.04 20.9346 16.04H21.8226V12.512C19.9746 12.512 18.5826 13.4 17.7426 14.768V12.704H14.3826V26H17.7426V19.376Z" fill="white"/>
<path d="M29.7977 15.248C31.5257 15.248 32.9177 16.352 32.9657 18.104H26.6537C26.9177 16.28 28.1897 15.248 29.7977 15.248ZM36.1097 21.824H32.4857C32.0537 22.712 31.2617 23.432 29.8217 23.432C28.1417 23.432 26.7977 22.328 26.6297 20.36H36.3497C36.4217 19.928 36.4457 19.496 36.4457 19.064C36.4457 15.104 33.7337 12.488 29.8937 12.488C25.9577 12.488 23.2217 15.152 23.2217 19.352C23.2217 23.528 26.0297 26.216 29.8937 26.216C33.1817 26.216 35.3897 24.272 36.1097 21.824Z" fill="white"/>
<path d="M44.6102 15.248C46.3382 15.248 47.7302 16.352 47.7782 18.104H41.4662C41.7302 16.28 43.0022 15.248 44.6102 15.248ZM50.9222 21.824H47.2982C46.8662 22.712 46.0742 23.432 44.6342 23.432C42.9542 23.432 41.6102 22.328 41.4422 20.36H51.1622C51.2342 19.928 51.2582 19.496 51.2582 19.064C51.2582 15.104 48.5462 12.488 44.7062 12.488C40.7702 12.488 38.0342 15.152 38.0342 19.352C38.0342 23.528 40.8422 26.216 44.7062 26.216C47.9942 26.216 50.2022 24.272 50.9222 21.824Z" fill="white"/>
<path d="M53.7107 26H57.0707V8.23999H53.7107V26Z" fill="white"/>
<path d="M59.5264 19.304C59.5264 23.456 62.2144 26.216 65.5744 26.216C67.6864 26.216 69.1984 25.208 69.9904 24.056V26H73.3744V12.704H69.9904V14.6C69.1984 13.496 67.7344 12.488 65.5984 12.488C62.2144 12.488 59.5264 15.152 59.5264 19.304ZM69.9904 19.352C69.9904 21.872 68.3104 23.264 66.4624 23.264C64.6624 23.264 62.9584 21.824 62.9584 19.304C62.9584 16.784 64.6624 15.44 66.4624 15.44C68.3104 15.44 69.9904 16.832 69.9904 19.352Z" fill="white"/>
<path d="M89.208 12.704H85.824V20.024C85.824 22.16 84.672 23.312 82.848 23.312C81.072 23.312 79.896 22.16 79.896 20.024V12.704H76.536V20.504C76.536 24.152 78.768 26.168 81.864 26.168C83.52 26.168 84.984 25.448 85.824 24.32V26H89.208V12.704Z" fill="white"/>
<path d="M101.835 26H105.195V18.2C105.195 14.528 102.987 12.512 99.8912 12.512C98.1872 12.512 96.7472 13.232 95.8832 14.36V12.704H92.5232V26H95.8832V18.656C95.8832 16.52 97.0592 15.368 98.8832 15.368C100.659 15.368 101.835 16.52 101.835 18.656V26Z" fill="white"/>
<path d="M107.526 19.352C107.526 23.528 110.262 26.216 114.102 26.216C117.414 26.216 119.646 24.344 120.366 21.512H116.742C116.334 22.712 115.47 23.336 114.078 23.336C112.206 23.336 110.958 21.944 110.958 19.352C110.958 16.76 112.206 15.344 114.078 15.344C115.47 15.344 116.358 16.064 116.742 17.192H120.366C119.646 14.216 117.414 12.488 114.102 12.488C110.262 12.488 107.526 15.176 107.526 19.352Z" fill="white"/>
<path d="M122.828 26H126.188V18.656C126.188 16.52 127.364 15.368 129.188 15.368C130.964 15.368 132.14 16.52 132.14 18.656V26H135.5V18.2C135.5 14.528 133.316 12.512 130.316 12.512C128.54 12.512 127.052 13.232 126.188 14.36V8.23999H122.828V26Z" fill="white"/>
</svg>
